# xmcd
#
# Track frame offsets:
#	150
#	13209
#	29439
#	46298
#	62617
#	83851
#	99447
#	110223
#	123045
#	138041
#	152532
#	168966
#	181737
#
# Disc length: 2625 seconds
#
# Revision: 1
# Processed by: cddbd v1.5.2PL0 Copyright (c) Steve Scherf et al.
# Submitted via: audiograbber 1.83.01
#
DISCID=9b0a3f0d
DTITLE=Randy Travis - Songs Of The Season
DYEAR=2007
DGENRE=Christmas
TTITLE0=(There's No Place Like) Home For The Holidays
TTITLE1=Have Yourself A Merry Little Christmas
TTITLE2=O Holy Night
TTITLE3=Go Tell It On The Mountain
TTITLE4=Labor Of Love
TTITLE5=Angels We Have Heard On High
TTITLE6=Let It Snow, Let It Snow, Let It Snow
TTITLE7=Away In A Manger
TTITLE8=O Little Town Of Bethlehem
TTITLE9=Nothin's Gonna Bring Me Down (At Christmas Time)
TTITLE10=The First Noel
TTITLE11=Joy To The World
TTITLE12=Our King
EXTD=
EXTT0=
EXTT1=
EXTT2=
EXTT3=
EXTT4=
EXTT5=
EXTT6=
EXTT7=
EXTT8=
EXTT9=
EXTT10=
EXTT11=
EXTT12=
PLAYORDER=
